<?xml version="1.0" encoding="utf-8"?>
<!-- Generator: Adobe Illustrator 21.0.0, SVG Export Plug-In . SVG Version: 6.00 Build 0)  -->
<!DOCTYPE svg PUBLIC "-//W3C//DTD SVG 1.1//EN" "http://www.w3.org/Graphics/SVG/1.1/DTD/svg11.dtd">
<svg version="1.1" id="Calque_1" xmlns="http://www.w3.org/2000/svg" xmlns:xlink="http://www.w3.org/1999/xlink" x="0px" y="0px"
	 viewBox="0 0 200 200" style="enable-background:new 0 0 200 200;" xml:space="preserve">
<style type="text/css">
	.st0{fill:#FF6950;}
	.st1{fill:#FFFFFF;}
</style>
<circle class="st0" cx="101.5" cy="101.5" r="75"/>
<path class="st1" d="M101.5,55.4L61.6,78.4v46.1l39.9,23.1l39.9-23.1V78.4L101.5,55.4z M136.7,81.2v22.1l-11.6,6.5V87.8l-7.3-4.2
	l-14.8-8.7l-12.6-7.7l11-6.3L136.7,81.2z M101.5,79.6l14,8.1l5,2.9v21.7l-19.2,11l-18.8-10.9V90.5L101.5,79.6z M66.3,81.2l19.6-11.3
	l11.2,6.9L77.8,87.8l-0.2,40.6l-11.4-6.6V81.2z M101.5,142.2l-19.2-11.1v-13.3l19.2,11.1l23.7-13.7v-0.1l11.6-6.5v13.2L101.5,142.2z
	"/>
</svg>
