<?xml version="1.0" encoding="utf-8"?>
<!-- Generator: Adobe Illustrator 21.0.0, SVG Export Plug-In . SVG Version: 6.00 Build 0)  -->
<!DOCTYPE svg PUBLIC "-//W3C//DTD SVG 1.1//EN" "http://www.w3.org/Graphics/SVG/1.1/DTD/svg11.dtd">
<svg version="1.1" id="Calque_1" xmlns="http://www.w3.org/2000/svg" xmlns:xlink="http://www.w3.org/1999/xlink" x="0px" y="0px"
	 viewBox="0 0 200 200" style="enable-background:new 0 0 200 200;" xml:space="preserve">
<style type="text/css">
	.st0{fill:#33C47F;}
	.st1{fill:#FFFFFF;}
</style>
<circle class="st0" cx="101.5" cy="100.5" r="75"/>
<g>
	<g>
		<path class="st1" d="M135.3,85.9c0,0.1,0,0.1,0,0.2c0,2.2-0.2,4.5-0.7,6.7c4.7,4.8,7.3,11.1,7.3,17.9c0,14.1-11.5,25.5-25.5,25.5
			c-2.1,0-4.3-0.3-6.4-0.8c-1.7,1.6-3.6,2.9-5.7,4.1c3.8,1.6,7.9,2.4,12.1,2.4c17.2,0,31.2-14,31.2-31.2
			C147.6,101,143,91.8,135.3,85.9z"/>
	</g>
	<g>
		<path class="st1" d="M102.2,111.7c-3.3,0-6.4-0.6-9.4-1.8c0,0.3,0,0.6,0,0.9c0,1.8,0.2,3.6,0.6,5.3c2.9,0.8,5.8,1.3,8.9,1.3
			c3,0,6-0.4,8.9-1.3c0.4-1.7,0.6-3.5,0.6-5.3c0-0.3,0-0.6,0-0.9C108.6,111.1,105.5,111.7,102.2,111.7z"/>
	</g>
	<g>
		<g>
			<path class="st1" d="M88,79.5c-3,0-6,0.4-8.9,1.3c-0.4,1.7-0.6,3.5-0.6,5.3c0,0.3,0,0.6,0,0.9c3-1.2,6.2-1.8,9.4-1.8
				c2.1,0,4.3,0.3,6.4,0.8c1.7-1.6,3.6-2.9,5.7-4.1C96.2,80.3,92.2,79.5,88,79.5z"/>
		</g>
		<g>
			<path class="st1" d="M109.5,88.1c-2,0.6-3.9,1.5-5.7,2.6c5.5,4.3,9,10.7,9.6,17.7c0.1,0.8,0.1,1.6,0.1,2.4c0,2.1-0.3,4.3-0.8,6.3
				c-1.5,5.8-5.1,11-10,14.5c-2.4,1.7-5,3-7.8,3.7c-2.3,0.6-4.6,1-6.9,1c-14.1,0-25.5-11.5-25.5-25.5c0-6.7,2.6-13.1,7.3-17.9
				c-0.5-2.2-0.7-4.5-0.7-6.7c0-0.1,0-0.1,0-0.2c-7.7,5.9-12.3,15-12.3,24.8c0,17.2,14,31.2,31.2,31.2c4.8,0,9.5-1.1,13.8-3.2
				c2.7-1.3,5.1-3,7.3-5c6-5.5,9.5-12.9,10-20.9c0.1-0.8,0.1-1.4,0.1-2.1c0-2.3-0.3-4.6-0.8-6.8C117.1,97.9,114,92.4,109.5,88.1z"/>
		</g>
	</g>
	<g>
		<path class="st1" d="M102.2,54.9c-16.4,0-30.1,12.8-31.1,29.2C71,84.9,71,85.5,71,86.1c0,2.3,0.3,4.6,0.8,6.8
			c1.6,7.2,5.7,13.5,11.5,18c0-0.1,0-0.1,0-0.2c0-2.2,0.2-4.5,0.7-6.7c-4.1-4.2-6.7-9.7-7.2-15.5c-0.1-0.8-0.1-1.6-0.1-2.4
			c0-2.1,0.3-4.3,0.8-6.3c2.9-11.3,13.1-19.2,24.8-19.2c11.7,0,21.9,7.9,24.8,19.2c0.5,2.1,0.8,4.2,0.8,6.3c0,0.8,0,1.5-0.1,2.4
			c-0.5,5.8-3.1,11.3-7.2,15.5c0.5,2.2,0.7,4.5,0.7,6.7c0,0.1,0,0.1,0,0.2c5.9-4.5,9.9-10.8,11.5-18c0.5-2.3,0.8-4.5,0.8-6.8
			c0-0.6,0-1.3-0.1-2.1C132.3,67.7,118.6,54.9,102.2,54.9z"/>
	</g>
	<g>
		<path class="st1" d="M116.4,79.5c-4.8,0-9.5,1.1-13.8,3.2c-2.7,1.3-5.1,3-7.3,5c-4.7,4.3-8,9.9-9.4,16.2c-0.5,2.3-0.8,4.5-0.8,6.8
			c0,0.6,0,1.3,0.1,2.1c0.5,7.9,3.9,15.1,9.7,20.6c2-0.6,3.9-1.5,5.7-2.6c-4.4-3.5-7.5-8.3-8.9-13.7c-0.5-2.1-0.8-4.2-0.8-6.3
			c0-0.8,0-1.5,0.1-2.4c0.7-7.4,4.6-14.2,10.7-18.5c2.4-1.7,5-3,7.8-3.7c2.3-0.6,4.6-1,6.9-1c3.3,0,6.4,0.6,9.4,1.8
			c0-0.3,0-0.6,0-0.9c0-1.8-0.2-3.6-0.6-5.3C122.4,79.9,119.4,79.5,116.4,79.5z"/>
	</g>
</g>
</svg>
