<?xml version="1.0" encoding="utf-8"?>
<!-- Generator: Adobe Illustrator 21.0.0, SVG Export Plug-In . SVG Version: 6.00 Build 0)  -->
<!DOCTYPE svg PUBLIC "-//W3C//DTD SVG 1.1//EN" "http://www.w3.org/Graphics/SVG/1.1/DTD/svg11.dtd">
<svg version="1.1" id="Calque_1" xmlns="http://www.w3.org/2000/svg" xmlns:xlink="http://www.w3.org/1999/xlink" x="0px" y="0px"
	 viewBox="0 0 200 200" style="enable-background:new 0 0 200 200;" xml:space="preserve">
<style type="text/css">
	.st0{fill:#A061D1;}
	.st1{fill:#FFFFFF;}
</style>
<circle class="st0" cx="101.5" cy="101.5" r="75"/>
<g>
	<g>
		<path class="st1" d="M137.2,67.1c-4.9-4.9-11.4-7.6-18.3-7.6c-5.9,0-11.7,2-16.2,5.7c-0.7,0.6-1.4,1.2-2.1,1.9l-2.3,2.3L69.9,97.8
			c0.5,0.6,1,1.2,1.5,1.7l1.6,1.6l28.6-28.6l2.2-2.2c0.7-0.7,1.6-1.4,2.4-2.1c3.7-2.7,8.1-4.2,12.7-4.2c5.7,0,11.1,2.2,15.1,6.2
			c7.3,7.3,8.3,18.9,2.5,27.3l1.9,1.9c0.5,0.5,0.9,1,1.4,1.5C147.4,90.7,146.4,76.3,137.2,67.1z"/>
	</g>
	<g>
		<path class="st1" d="M137.2,137.2c9.4-9.4,10.2-24.2,1.9-34.6c-0.6-0.7-1.2-1.4-1.9-2.1l-2.3-2.3l-28.3-28.3
			c-0.6,0.5-1.2,1-1.7,1.5l-1.6,1.6l28.6,28.6l2.2,2.2c0.7,0.7,1.4,1.6,2.1,2.4c6.2,8.4,5.3,20.4-2.1,27.8c-4,4-9.4,6.2-15.1,6.2
			c-4.4,0-8.6-1.3-12.2-3.8l-1.9,1.9c-0.5,0.5-1,0.9-1.5,1.4c4.4,3.3,9.9,5.1,15.5,5.1C125.8,144.8,132.3,142.1,137.2,137.2z"/>
	</g>
	<g>
		<path class="st1" d="M70.4,100.6c-0.7-0.7-1.4-1.6-2.1-2.4c-6.2-8.4-5.3-20.4,2.1-27.8c4-4,9.4-6.2,15.1-6.2
			c4.4,0,8.6,1.3,12.2,3.8l1.9-1.9c0.5-0.5,1-0.9,1.5-1.4c-4.4-3.3-9.9-5.1-15.5-5.1c-6.9,0-13.4,2.7-18.3,7.6
			c-9.4,9.4-10.2,24.2-1.9,34.6c0.6,0.7,1.2,1.4,1.9,2.1l2.3,2.3l28.3,28.3c0.6-0.5,1.2-1,1.7-1.5l1.6-1.6l-28.6-28.6L70.4,100.6z"
			/>
	</g>
	<g>
		<path class="st1" d="M131.3,103.3l-28.6,28.6l-2.2,2.2c-0.7,0.7-1.6,1.4-2.4,2.1c-3.7,2.7-8.1,4.2-12.7,4.2
			c-5.7,0-11.1-2.2-15.1-6.2c-7.3-7.3-8.3-18.9-2.5-27.3l-1.9-1.9c-0.5-0.5-0.9-1-1.4-1.5c-7.7,10.3-6.7,24.7,2.5,33.8
			c4.9,4.9,11.4,7.6,18.3,7.6c5.9,0,11.7-2,16.2-5.7c0.7-0.6,1.4-1.2,2.1-1.9l2.3-2.3l28.3-28.3c-0.5-0.6-1-1.2-1.5-1.7L131.3,103.3
			z"/>
	</g>
</g>
</svg>
