<?xml version="1.0" encoding="utf-8"?>
<!-- Generator: Adobe Illustrator 21.0.0, SVG Export Plug-In . SVG Version: 6.00 Build 0)  -->
<!DOCTYPE svg PUBLIC "-//W3C//DTD SVG 1.1//EN" "http://www.w3.org/Graphics/SVG/1.1/DTD/svg11.dtd">
<svg version="1.1" id="Calque_1" xmlns="http://www.w3.org/2000/svg" xmlns:xlink="http://www.w3.org/1999/xlink" x="0px" y="0px"
	 viewBox="0 0 200 200" style="enable-background:new 0 0 200 200;" xml:space="preserve">
<style type="text/css">
	.st0{fill:#1C4F99;}
	.st1{fill:#FFFFFF;}
</style>
<circle class="st0" cx="99.5" cy="99.5" r="75"/>
<g>
	<g>
		<path class="st1" d="M133.9,100.9c-1.3,9.1-6.4,17.5-13.9,23c-3.8,2.8-8.1,4.8-12.7,5.8c-2.6,0.6-5.2,0.9-7.8,0.9
			c-1.9,0-3.7-0.2-5.6-0.5l3.7,6.2c0.7,0,1.3,0.1,1.9,0.1c0.7,0,1.5,0,2.4-0.1c3.4-0.2,6.7-0.8,9.9-1.8
			c16.9-5.4,28.2-20.9,28.2-38.5c0-1.6-0.1-3.2-0.3-4.8L133.9,100.9z"/>
	</g>
	<g>
		<path class="st1" d="M78.9,123.8c-7.5-5.5-12.5-14-13.7-23.1c-0.2-1.6-0.3-3.2-0.3-4.7c0-3.1,0.4-6.2,1.2-9.2
			c1.2-4.3,3.3-8.4,6-12h-7c-0.8,1.4-1.6,2.8-2.3,4.2c-1.4,3-2.4,6.3-3.1,9.6c-0.5,2.5-0.7,5-0.7,7.5c0,16.8,10.2,31.6,25.7,37.7
			L78.9,123.8z"/>
	</g>
	<g>
		<path class="st1" d="M130.5,67.1c1.7,1.8,3.2,3.7,4.5,5.8h4.9h1.7l-0.9,1.5l-2.8,4.7l-5.1,8.5l-23.8,39.7c3.4-1,6.7-2.7,9.6-4.8
			l13.4-22.4l7.3-12.2l12.4-20.8H130.5z"/>
	</g>
	<g>
		<path class="st1" d="M83.9,67.1h-13H47.3l11.2,18.7c0.6-2.4,1.4-4.8,2.5-7.1l-2.6-4.3l-0.9-1.5h1.7h5.4h9.6h48.5
			c-2.3-2.3-4.9-4.2-7.8-5.8H83.9z"/>
	</g>
	<g>
		<path class="st1" d="M133.7,74.3c-1.7-2.7-3.8-5.3-6.2-7.5c-7.6-7.3-17.5-11.3-28-11.3c-9.6,0-18.8,3.4-26.2,9.6h10.3
			c4.9-2.5,10.4-3.9,15.9-3.9c5.6,0,11.1,1.4,16.1,4c3.8,2,7.2,4.7,10,7.9c2.9,3.4,5.2,7.3,6.7,11.5l3.7-6.2
			C135.4,77.1,134.6,75.7,133.7,74.3z"/>
	</g>
	<g>
		<path class="st1" d="M102.6,138.2l-2.2,3.7l-0.8,1.4l-0.8-1.4l-2.5-4.1l-5.1-8.5L67.5,89.6c-0.4,2.1-0.6,4.3-0.6,6.4
			c0,1.4,0.1,2.8,0.3,4.3l13.4,22.4l7.3,12.3l11.7,19.6l10.5-17.5C107.6,137.7,105.1,138.1,102.6,138.2z"/>
	</g>
</g>
</svg>
